<svg xmlns="http://www.w3.org/2000/svg" viewBox="0 0 640 597"><path style="fill:#820C1F" d="M172.281.46c-2.85.65-4.235 2.658-4.094 3.294-1.777 1.918-.185 5.953.813 8.246l4.477 3.178c1.809 1.494.521.37.521.37l1.288 1.124c.732.824-.269.07.595.703.622.57 1.266 1.12 1.908 1.672 5.68 7.453 22.49 24.783 16.22 33.635-1.56 2.204-4.5 2.506-6.92 1.754-8.14-2.531-13.019-4.968-22.089-4.346-19.4 1.328-38.75.88-58 1.953-6.52.364-10.107 5.86-16 6.893-6.304 1.104-15.702-4.313-21-7.248C59.236 45.721 52.877 34.377 55.518 22c.949-4.45 4.312-8.57 4.836-12.98.462-3.883-3.15-5.044-6.356-4.907C40.389 4.694 37.237 25.446 35.728 36 31.93 62.587 49.638 88.738 76 95l-1 5c-23.162-7.534-43.034-4.958-62 11.3-5.75 4.93-15.607 14.06-12.258 22.68 2.592 6.68 12.005 8.901 18.258 10.221 18.008 3.79 35.012 3.289 53-.201-.005 8.14-.66 17.6-4.379 25-7.905 15.72-26.095 34.58-14.969 54.77 2.126 3.86 6.977 2.77 10.348 4.82 14.057 8.53 25.338 11.5 42 7.75 4.41-1 14.56-7.74 18.61-5.46 2.83 1.59 4.26 6.37 5.64 9.12 4.03 8.07 8.47 15.92 12.5 24 10.9 21.8 22.6 43.2 33.5 65 4.416 8.841 10.74 18.234 13.727 27.746v.045c-.143 6.378.135 12.732.666 19.07-.418 4.5-.786 8.986-.223 13.139 2.77 20.287 8.31 41.857 9.057 62.603.123 6.663-.144 13.343-1 20.051-2.792 22.518-10.221 44.045-17.965 65.336C172.45 549.712 162.05 561.24 158 575l21 5 1 1c9.09 0 30.15 3.22 36.38-5.23 4.858-6.581 1.027-18.248.329-27.817l.45-.012c-.315-2.137-.533-4.827-.077-7.216.139-.576.306-1.135.518-1.664 2.09-5.21 9.34-3.632 10.97-9.122 1.6-5.41-.64-12.469-1.29-17.939-.98-8.32-.76-17.64-.19-26 1.586-23.133 9.785-46.254 10.012-69.273.052-.335.108-.67.16-1.004.422-5.222.297-11.142-1.694-16.141A71.245 71.245 0 0 0 235 397c17.46 2.35 34.58.28 51-7 20.3 47.11 63.91 86.53 48.26 143-2.08 7.49-6.04 13.87-8.91 21-1.43 3.57-.87 7.7-2.95 11-5.56 8.82-14.58 14.93-18.4 25 15.05 8.55 30.62 7.48 47 4.39 4.68-.88 12.95-1.48 16.4-5.09 1.86-1.95 1.39-4.87 2.62-7.13 1.44-2.63 4.19-4.26 5.2-7.19 2.48-7.2-1.84-19.66-3.22-26.98 21.64-1.9 11.56-25.89 8-40-6.66-26.33-12.99-52.75-19.88-79-3.79-14.41-9.21-29.23-11.12-44 20.75 1.64 41.95 1.6 62-5 7.84-2.58 15.6-5.57 23-9.25 2.74-1.36 7.36-4.88 10.58-4.09 2.86.72 5.28 4.19 7.42 6.05 6.01 5.24 17.83 10.03 21.97 16.67 2.57 4.12-.4 11.52 3.63 14.96 4.95 4.22 9.32-7.23 10.4-10.34 4.25 4.24 7.79 8.31 14 9l1-18c7.6 1.17 10.67 10.47 17.9 11.42 8.83 1.16 3.14-17.29 4.71-21.25 1.3-3.29 5.1-5.55 7.39-8.17h1c15.82 29.73 17.02 55.16 9.5 88-3.21 14.03-7.67 20.13-16.14 31.17-2.09 2.72-1.39 4.55.64 6.83v1l-11 13c6.68 3.88 12.36 5 20 5l-14.62 16-1.38 8.291L509 552v1c21.05 15.03 41.12 11.62 62-1-3.67-9.03-5.59-22.87.09-31.83 3.71-5.86 12.14-9.19 11.68-17.17-.5-8.72-4.441-17.14-4.731-26-.58-18.08 5.202-38.65 9.842-56 3.57-13.33 14.078-25.17 15.908-39 1.24-9.42-5.638-18.03-7.318-27-2.27-12.1 1.359-26.19 3.949-38 5.73-26.08 13.99-52.32 16.41-79 1.19-13.14-.82-28.62-1.74-42-1.16-16.81-3.39-35.75-11.09-51 13.03 12.62 14.84 32 16.09 49 2.82 38.53-.67 79.8-6.68 118-3.45 21.94-20.93 52.32 4.59 69.52 4.56 3.07 8.6-.46 12-3.61 7.62-7.09 11.3-14.61 8.4-24.91-2.8-9.98-10.75-18.6-12.04-29-1.83-14.86 3.53-32.06 4.55-47 3.34-48.66 6.98-104.24-16.17-149-15.75-30.464-48.03-36.761-79.74-35.984-29.93.733-58.92 9.925-88 15.375-22.08 4.13-45.58 5.27-68 5.27-24.88 0-50.19-.871-75-2.571-9.22-.63-18.85 1.071-28-.229-7.51-1.07-14.51-7.321-22-9.431-17.41-4.916-33.74-2.894-51 1.57-.38-7.292 5.33-8.455 9.96-13.043 5.18-5.136 9.59-12.026 11.94-18.957C235.92 37.484 204.76 3.498 173 .484a5.521 5.521 0 0 0-.719-.023Zm43.002 566.722.01.082-.039.027.03-.11z"/></svg>